<?xml version="1.0" encoding="UTF-8" standalone="no"?>
<!-- Creator: CorelDRAW (Версия для OEM) -->

<svg
   xml:space="preserve"
   width="198.35666mm"
   height="153.46729mm"
   version="1.1"
   style="clip-rule:evenodd;fill-rule:evenodd;image-rendering:optimizeQuality;shape-rendering:geometricPrecision;text-rendering:geometricPrecision"
   viewBox="0 0 19790.078 15311.458"
   id="svg15"
   xmlns="http://www.w3.org/2000/svg"
   xmlns:svg="http://www.w3.org/2000/svg">
 <defs
   id="defs1"><style
     type="text/css"
     id="style1">
   <![CDATA[
    .fil4 {fill:#018C82}
    .fil1 {fill:#20A399}
    .fil3 {fill:#E84D00}
    .fil0 {fill:#ED7619}
    .fil2 {fill:#FEFCF2}
   ]]>
  </style></defs>
 <g
   id="Слой_x0020_1"
   transform="translate(-3419.9798,-55.573003)">
  <metadata
   id="CorelCorpID_0Corel-Layer" />
  <g
   id="_1649696784">
   <path
   class="fil0"
   d="M 7421.15,5258.81 C 7319.09,5601.92 7219.34,5884 7101.8,6206.46 6652.12,7440.07 5501.81,9092.3 4298.02,9733.42 c -287.74,153.25 -545.11,266.33 -878.04,388.73 l 1.31,2502.24 c 835.85,-163.44 2199.29,-978.81 2730.66,-1385.98 443.98,-340.21 476.72,-402.18 808.76,-704.37 106.25,-96.69 165.87,-168.35 265.16,-264.99 C 8613.7,8918.37 9513.42,6465.1 9849.72,4619.01 l 249.77,-1801.15 c 64.867,4213.5791 122.237,8364.352 76.88,12545.77 l 12970.74,3.4 -1.28,-2231.06 c -3614.925,-9.77 -7197.724,-14.776 -10902.45,0.08 l 28.05,-9802.551 c 0.42,-1046.43 0.339,-2219.1203 7.37,-3275.39 C 10899.945,60.438664 9521.0521,51.923993 8142.2023,57.5082 8113.898,708.67931 8083.08,1677.62 8026.88,2311.91 7926.74,3441.93 7729.71,4221.43 7421.17,5258.79 Z"
   id="path1" />
   <path
   class="fil1"
   d="m 14454.41,11555.92 c 362.149,7.235 8192.93,13.83 8755.65,21.82 l -2.15,-2340.62 -6409.67,1.36 -2.22,-9177.323106 -2357.652,0.907464 16.042,11493.865642 z"
   id="path2" />
   
   
   
   
   
   
   
   
   
   
   
   
   
  </g>
 </g>
</svg>
