<?xml version="1.0" encoding="UTF-8" standalone="no"?>
<!-- Creator: CorelDRAW (Версия для OEM) -->

<svg
   xml:space="preserve"
   width="284.51602mm"
   height="223.08099mm"
   version="1.1"
   style="clip-rule:evenodd;fill-rule:evenodd;image-rendering:optimizeQuality;shape-rendering:geometricPrecision;text-rendering:geometricPrecision"
   viewBox="0 0 28386.213 22256.83"
   id="svg15"
   xmlns:xlink="http://www.w3.org/1999/xlink"
   xmlns="http://www.w3.org/2000/svg"
   xmlns:svg="http://www.w3.org/2000/svg">
 <defs
   id="defs1"><style
     type="text/css"
     id="style1">
   <![CDATA[
    .fil4 {fill:#018C82}
    .fil1 {fill:#20A399}
    .fil3 {fill:#E84D00}
    .fil0 {fill:#ED7619}
    .fil2 {fill:#FEFCF2}
   ]]>
  </style></defs>
 <g
   id="Слой_x0020_1">
  <metadata
   id="CorelCorpID_0Corel-Layer" />
  <g
   id="_1649696784">
   <path
   class="fil0"
   d="M 7421.15,5258.81 C 7319.09,5601.92 7219.34,5884 7101.8,6206.46 6652.12,7440.07 5501.81,9092.3 4298.02,9733.42 c -287.74,153.25 -545.11,266.33 -878.04,388.73 l 1.31,2502.24 c 835.85,-163.44 2199.29,-978.81 2730.66,-1385.98 443.98,-340.21 476.72,-402.18 808.76,-704.37 106.25,-96.69 165.87,-168.35 265.16,-264.99 C 8613.7,8918.37 9513.42,6465.1 9849.72,4619.01 l 249.77,-1801.15 c 64.867,4213.5791 122.237,8364.352 76.88,12545.77 l 12970.74,3.4 -1.28,-2231.06 c -3614.925,-9.77 -7197.724,-14.776 -10902.45,0.08 l 28.05,-9802.551 c 0.42,-1046.43 0.339,-2219.1203 7.37,-3275.39 C 10899.945,60.438664 9521.0521,51.923993 8142.2023,57.5082 8113.898,708.67931 8083.08,1677.62 8026.88,2311.91 7926.74,3441.93 7729.71,4221.43 7421.17,5258.79 Z"
   id="path1" />
   <path
   class="fil1"
   d="m 14454.41,11555.92 c 362.149,7.235 8192.93,13.83 8755.65,21.82 l -2.15,-2340.62 -6409.67,1.36 -2.22,-9177.323106 -2357.652,0.907464 16.042,11493.865642 z"
   id="path2" />
   
   <path
   class="fil0"
   d="m 865.87722,20846.034 c -147.71348,267.122 -522.16115,282.451 -842.046318,322.956 -0.464037,477.303 1.287725,641.386 2.974077,1037.753 C 1884.205,22433.153 2034.46,20969.54 2123.05,19419.43 c 27.07,-473.69 60.1336,-1097.575 84.67,-1600.69 l 962.3,-9.06 c 24.4836,1508.555 43.9632,3008.733 36.2145,4424.706 l 1135.5109,-6.696 -72.4981,-5466.675 -3140.4646,-2.325 c -4.1442,303.105 -66.5375,3775.212 -262.90548,4087.344 z"
   id="path4" />
   <path
   class="fil0"
   d="m 14136.54,18919.42 c 617.39,-117.55 796.59,451.41 825.74,990.31 30.01,554.95 -26.4,1211.13 -564.03,1296.24 -624.66,98.89 -843.08,-441.34 -862.82,-1016.32 -19.66,-572.74 90.37,-1173 601.11,-1270.23 z M 14007,17845.35 c -297.19,35 -551.48,119.25 -777.31,257.79 -153.71,94.3 -412.68,347.88 -516.74,507.41 -301,461.46 -425.39,1002.57 -375.89,1675.55 88.99,1209.89 874.88,2107.51 2197.55,1941.28 1194.35,-150.11 1742.16,-1135.21 1664.46,-2458.11 -72.32,-1231.59 -858.86,-2080.92 -2192.07,-1923.91 z"
   id="path5" />
   <path
   class="fil0"
   d="m 6813.66,18918.96 c 1112.71,-284.25 1133.84,2089.75 323.67,2275.4 -660.37,151.31 -862.24,-381.21 -892.53,-965.44 -31.92,-615.67 18.81,-1169.44 568.86,-1309.96 z m -136.94,-1076.73 c -1165.14,193.42 -1744.86,1152.19 -1631.64,2490.36 100.09,1183 906.85,2085.92 2225.31,1882.36 1235.3,-190.72 1734.62,-1227.41 1628.94,-2462.35 -99.88,-1167.01 -899.76,-2129.98 -2222.61,-1910.38 z"
   id="path6" />
   <path
   class="fil1"
   d="m 22407.89,19574.67 c -48.88,-383.51 245.87,-830.57 586.92,-850.84 438.7,-26.07 643.19,413.32 579.34,851.42 z m 2200.22,2237.09 c -36.21,-144.59 -302.52,-723.82 -377.97,-876.38 -357.31,167.77 -673.13,409.1 -1233.61,304.04 -399.7,-74.93 -613.15,-454.06 -592.94,-927.2 l 2100.72,0.32 c 26.29,-42.97 8.74,4.8 39.93,-82.93 202.88,-570.69 110.99,-1948.82 -966.48,-2317.03 -957.92,-327.37 -1859.77,168.63 -2190.8,1172.07 -284.88,863.6 -222.57,2122.74 532.46,2743.09 816.02,670.46 2246.05,437.06 2688.69,-15.97 z"
   id="path7" />
   <path
   class="fil1"
   d="m 28347.36,21853.59 -315.47,-1095.5 c -292.86,152 -640.86,469.66 -1152.07,328.86 -805.09,-221.72 -775.73,-2396.66 610.47,-2151.46 243.84,43.13 379.08,169.49 552.49,236.29 l 343.44,-917.22 c -155.47,-75.94 -252.15,-177.78 -456.34,-258.56 -588.1,-232.67 -1253.95,-227.17 -1794.19,60.13 -562.66,299.23 -977.84,1000.88 -988.68,1924.4 -12.1,1030.82 244.35,1642.09 894.32,2021.33 966.95,564.18 1749.64,43.7 2306.04,-148.27 z"
   id="path8" />
   <path
   class="fil0"
   d="m 10599.846,18841.317 c 358.118,-0.126 1020.474,-0.452 1390.427,0.572 -0.32,-258.44 6.314,-824.706 -4.745,-1030.611 l -2417.3825,-0.766 -13.8941,4427.87 1020.5406,-2.229 c 9.507,-1126.205 23.797,-2261.82 25.054,-3394.836 z"
   id="path9"
   style="display:inline" />
   
   
   
   
   <path
   class="fil3"
   d="m 10577.24,22099.62 -1010.79,11.98 -3.17,-4106.09 2388.13,-13.86 c 74.44,210.78 31.24,794.11 31.56,1052.55 -362.64,-15.65 -734.46,-15.63 -1100.49,-30.74 -365.32,-15.07 -299.31,54.99 -296.08,827.28 1.57,375.64 2.97,750.61 0.75,1126.29 -1.9,319.49 33.44,840.31 -9.9,1132.57 z m -1066.9,70.72 1136.93,-0.84 -4.55,-3097.57 1399,33.04 -0.98,-1162.56 -2531.45,-2.34 z"
   id="path14"
   style="display:none" />
   
  <use
   x="0"
   y="0"
   xlink:href="#path4"
   id="use17"
   transform="translate(16451.441,-19.501815)" /></g>
 </g>
</svg>
