<?xml version="1.0" encoding="UTF-8" standalone="no"?>
<!-- Creator: CorelDRAW (Версия для OEM) -->

<svg
   xml:space="preserve"
   width="198.35666mm"
   height="154.0242mm"
   version="1.1"
   style="clip-rule:evenodd;fill-rule:evenodd;image-rendering:optimizeQuality;shape-rendering:geometricPrecision;text-rendering:geometricPrecision"
   viewBox="0 0 19790.078 15367.022"
   id="svg15"
   xmlns="http://www.w3.org/2000/svg"
   xmlns:svg="http://www.w3.org/2000/svg">
 <defs
   id="defs1"><style
     type="text/css"
     id="style1">
   <![CDATA[
    .fil4 {fill:#018C82}
    .fil1 {fill:#20A399}
    .fil3 {fill:#E84D00}
    .fil0 {fill:#ED7619}
    .fil2 {fill:#FEFCF2}
   ]]>
  </style></defs>
 <g
   id="Слой_x0020_1"
   transform="translate(-3419.9798,-0.01)">
  <metadata
   id="CorelCorpID_0Corel-Layer" />
  <g
   id="_1649696784">
   <path
   class="fil0"
   d="M 7421.15,5258.81 C 7319.09,5601.92 7219.34,5884 7101.8,6206.46 6652.12,7440.07 5501.81,9092.3 4298.02,9733.42 c -287.74,153.25 -545.11,266.33 -878.04,388.73 l 1.31,2502.24 c 835.85,-163.44 2199.29,-978.81 2730.66,-1385.98 443.98,-340.21 476.72,-402.18 808.76,-704.37 106.25,-96.69 165.87,-168.35 265.16,-264.99 C 8613.7,8918.37 9513.42,6465.1 9849.72,4619.01 l 249.77,-1801.15 c 10.07,-7.06 39.72,-114.79 79.65,54.62 l 3.87,10914.43 c 0.7,483.1 33.5,1115.08 -6.64,1576.72 l 12970.74,3.4 -1.28,-2231.06 c -883.28,37.51 -1833.26,2.13 -2724.32,3.8 l -6792.95,1.04 c -1608.01,4.03 -1356.2,171.35 -1357.6,-832.15 l 0.47,-8975.16 c 0.42,-1046.43 -54.82,-2246.7 7.37,-3275.39 -679.69,16.67 -1382.21,0.23 -2064.32,-0.7 -481.89,-0.66 -1669.21,-57.61 -2069.84,19.6 40.24,623.83 -61.56,1600.61 -117.76,2234.9 -100.14,1130.02 -297.17,1909.52 -605.71,2946.88 z"
   id="path1" />
   <path
   class="fil1"
   d="m 14454.41,11555.92 c 264.64,65.74 8192.93,13.83 8755.65,21.82 l -2.15,-2340.62 -6409.67,1.36 -2.22,-9235.93 -2333.52,-2.54 -8.09,11555.92 z"
   id="path2" />
   <path
   class="fil1"
   d="m 17009.81,20656.03 c -99.37,310.84 -269.55,483.64 -645.56,519.45 31.11,429.7 51.05,587.55 -13.5,1011.51 482.57,153.05 975.15,-21.57 1238.57,-285.32 626.06,-626.89 667.87,-1707.3 723.47,-2553.47 30.92,-470.65 41.25,-1095.13 104.63,-1540.2 l 944.02,6.6 28.64,4278.91 c 248.92,56.17 812.71,26.16 1097,26.51 L 20441,16847.53 c -181.7,-63.72 -2830.22,-63.02 -3065.86,-5.04 -24.53,536.44 -145.98,3127.8 -260.36,3671.34 -43.34,205.96 -9.09,169.23 -104.97,142.19 z"
   id="path3" />
   <path
   class="fil0"
   d="m 787.87,20753.4 c -117.55,103.93 -129.42,189.46 -294.67,276.45 -139.25,73.3 -301.28,119.62 -479.12,139.14 70.23,448.05 -1.15,626.76 -14.09,1030.44 1857.4,226.41 2034.47,-1229.89 2123.06,-2780 27.07,-473.69 21.13,-1156.08 84.67,-1600.69 l 962.3,-9.06 c 108.82,62.56 61,352.25 62.29,482.41 l 32.43,3820.41 1018.5,7.93 -38.37,-5300.91 -3091.71,-7.2 c 26.26,560.85 -52.34,1523.19 -100.68,2110.25 -12.4,150.61 -127.34,2089.21 -264.61,1830.85 z"
   id="path4" />
   <path
   class="fil0"
   d="m 14136.54,18919.42 c 617.39,-117.55 796.59,451.41 825.74,990.31 30.01,554.95 -26.4,1211.13 -564.03,1296.24 -624.66,98.89 -843.08,-441.34 -862.82,-1016.32 -19.66,-572.74 90.37,-1173 601.11,-1270.23 z M 14007,17845.35 c -297.19,35 -551.48,119.25 -777.31,257.79 -153.71,94.3 -412.68,347.88 -516.74,507.41 -301,461.46 -425.39,1002.57 -375.89,1675.55 88.99,1209.89 874.88,2107.51 2197.55,1941.28 1194.35,-150.11 1742.16,-1135.21 1664.46,-2458.11 -72.32,-1231.59 -858.86,-2080.92 -2192.07,-1923.91 z"
   id="path5" />
   <path
   class="fil0"
   d="m 6813.66,18918.96 c 1112.71,-284.25 1133.84,2089.75 323.67,2275.4 -660.37,151.31 -862.24,-381.21 -892.53,-965.44 -31.92,-615.67 18.81,-1169.44 568.86,-1309.96 z m -136.94,-1076.73 c -1165.14,193.42 -1744.86,1152.19 -1631.64,2490.36 100.09,1183 906.85,2085.92 2225.31,1882.36 1235.3,-190.72 1734.62,-1227.41 1628.94,-2462.35 -99.88,-1167.01 -899.76,-2129.98 -2222.61,-1910.38 z"
   id="path6" />
   <path
   class="fil1"
   d="m 22407.89,19574.67 c -48.88,-383.51 245.87,-830.57 586.92,-850.84 438.7,-26.07 643.19,413.32 579.34,851.42 z m 2200.22,2237.09 c -36.21,-144.59 -302.52,-723.82 -377.97,-876.38 -357.31,167.77 -673.13,409.1 -1233.61,304.04 -399.7,-74.93 -613.15,-454.06 -592.94,-927.2 l 2100.72,0.32 c 26.29,-42.97 8.74,4.8 39.93,-82.93 202.88,-570.69 110.99,-1948.82 -966.48,-2317.03 -957.92,-327.37 -1859.77,168.63 -2190.8,1172.07 -284.88,863.6 -222.57,2122.74 532.46,2743.09 816.02,670.46 2246.05,437.06 2688.69,-15.97 z"
   id="path7" />
   <path
   class="fil1"
   d="m 28347.36,21853.59 -315.47,-1095.5 c -292.86,152 -640.86,469.66 -1152.07,328.86 -805.09,-221.72 -775.73,-2396.66 610.47,-2151.46 243.84,43.13 379.08,169.49 552.49,236.29 l 343.44,-917.22 c -155.47,-75.94 -252.15,-177.78 -456.34,-258.56 -588.1,-232.67 -1253.95,-227.17 -1794.19,60.13 -562.66,299.23 -977.84,1000.88 -988.68,1924.4 -12.1,1030.82 244.35,1642.09 894.32,2021.33 966.95,564.18 1749.64,43.7 2306.04,-148.27 z"
   id="path8" />
   <path
   class="fil0"
   d="m 10577.24,22099.62 c 43.34,-292.26 8,-813.08 9.9,-1132.57 2.22,-375.68 0.82,-750.65 -0.75,-1126.29 -3.23,-772.29 -69.24,-842.35 296.08,-827.28 366.04,15.11 737.85,15.09 1100.49,30.74 -0.32,-258.44 42.88,-841.77 -31.56,-1052.55 l -2388.13,13.86 3.17,4106.09 1010.79,-11.98 z"
   id="path9" />
   <path
   class="fil2"
   d="m 6813.66,18918.96 c -550.05,140.52 -600.78,694.29 -568.86,1309.96 30.29,584.22 232.16,1116.75 892.53,965.44 810.16,-185.64 789.03,-2559.65 -323.67,-2275.4 z"
   id="path10" />
   <path
   class="fil2"
   d="m 14136.54,18919.42 c -510.74,97.24 -620.78,697.49 -601.11,1270.23 19.74,574.97 238.16,1115.21 862.82,1016.32 537.63,-85.11 594.04,-741.29 564.03,-1296.24 -29.14,-538.9 -208.35,-1107.86 -825.74,-990.31 z"
   id="path11" />
   <path
   class="fil3"
   d="m 787.87,20753.4 c 137.27,258.35 252.21,-1680.24 264.61,-1830.85 48.34,-587.06 126.94,-1549.4 100.68,-2110.25 l 3091.71,7.2 38.37,5300.91 -1018.5,-7.93 -32.43,-3820.41 c -1.29,-130.16 46.53,-419.85 -62.29,-482.41 l 37.41,4362.22 1132.75,-2.39 -52.67,-5402.7 -3168.01,-5.09 c -79.91,363.37 -105.57,2613.81 -234.07,3533.24 -22.76,162.84 -85.89,334.96 -97.58,458.45 z"
   id="path12" />
   <path
   class="fil2"
   d="m 22407.89,19574.67 1166.26,0.58 c 63.84,-438.1 -140.65,-877.49 -579.34,-851.42 -341.04,20.27 -635.79,467.33 -586.92,850.84 z"
   id="path13" />
   <path
   class="fil3"
   d="m 10577.24,22099.62 -1010.79,11.98 -3.17,-4106.09 2388.13,-13.86 c 74.44,210.78 31.24,794.11 31.56,1052.55 -362.64,-15.65 -734.46,-15.63 -1100.49,-30.74 -365.32,-15.07 -299.31,54.99 -296.08,827.28 1.57,375.64 2.97,750.61 0.75,1126.29 -1.9,319.49 33.44,840.31 -9.9,1132.57 z m -1066.9,70.72 1136.93,-0.84 -4.55,-3097.57 1399,33.04 -0.98,-1162.56 -2531.45,-2.34 z"
   id="path14" />
   <path
   class="fil4"
   d="m 17009.81,20656.03 c 95.88,27.04 61.63,63.76 104.97,-142.19 114.38,-543.54 235.83,-3134.9 260.36,-3671.34 235.65,-57.99 2884.16,-58.68 3065.86,5.04 l 46.08,5272.49 c -284.29,-0.35 -848.09,29.66 -1097,-26.51 68.26,93.6 -100.39,83.85 116.3,73.72 l 1050.25,0.22 -66.93,-5412.02 -3169.3,5.42 c -9.1,525.75 -152.03,3666.21 -310.6,3895.17 z"
   id="path15" />
  </g>
 </g>
</svg>
